<?xml version="1.0" encoding="utf-8"?>
<!-- Generator: Adobe Illustrator 16.0.0, SVG Export Plug-In . SVG Version: 6.00 Build 0)  -->
<!DOCTYPE svg PUBLIC "-//W3C//DTD SVG 1.1//EN" "http://www.w3.org/Graphics/SVG/1.1/DTD/svg11.dtd">
<svg version="1.1"
	 id="box" xmlns:sodipodi="http://sodipodi.sourceforge.net/DTD/sodipodi-0.dtd" xmlns:inkscape="http://www.inkscape.org/namespaces/inkscape" xmlns:svg="http://www.w3.org/2000/svg" xmlns:dc="http://purl.org/dc/elements/1.1/" xmlns:cc="http://creativecommons.org/ns#" xmlns:rdf="http://www.w3.org/1999/02/22-rdf-syntax-ns#" inkscape:version="0.48.3.1 r9886" sodipodi:docname="dessin.svg"
	 xmlns="http://www.w3.org/2000/svg" xmlns:xlink="http://www.w3.org/1999/xlink" x="0px" y="0px" width="1661.811px"
	 height="985.039px" viewBox="0 0 1661.811 985.039" enable-background="new 0 0 1661.811 985.039" xml:space="preserve">
<sodipodi:namedview  units="mm" id="base" fit-margin-top="0" showgrid="false" bordercolor="#666666" fit-margin-left="0" pagecolor="#ffffff" borderopacity="1.0" inkscape:current-layer="layer1" fit-margin-right="0" fit-margin-bottom="0" inkscape:document-units="mm" inkscape:pageshadow="2" inkscape:window-maximized="1" inkscape:pageopacity="0.0">
	</sodipodi:namedview>
<g id="layer1" inkscape:label="Calque 1" inkscape:groupmode="layer">
	<path id="bottom" fill="#FFFFFF" stroke="#FF0000" d="M92.126,70.866h28.488v8.504h28.062v-8.504h28.631v8.504h28.062v-8.504
		h28.629v8.504h28.063v-8.504h28.63v8.504h28.063v-8.504h28.63v8.504h28.063v-8.504h28.629v8.504h28.063v-8.504h28.63v8.504h28.063
		v-8.504h28.63v8.504h28.063v-8.504h28.63v8.504h28.062v-8.504h28.63v8.504h28.062v-8.504h28.631v8.504h28.062v-8.504h28.488v28.488
		h-8.504v28.063h8.504v28.63h-8.504v28.063h8.504v28.63h-8.504v28.063h8.504v28.629h-8.504v28.063h8.504v28.63h-8.504v28.062h8.504
		v28.63h-8.504v28.062h8.504v28.63h-8.504v28.062h8.504v28.629h-8.504v28.063h8.504v28.488h-28.488v-8.504h-28.062v8.504h-28.631
		v-8.504H630.85v8.504h-28.63v-8.504h-28.062v8.504h-28.63v-8.504h-28.063v8.504h-28.63v-8.504h-28.063v8.504h-28.63v-8.504h-28.063
		v8.504h-28.629v-8.504h-28.063v8.504h-28.63v-8.504h-28.063v8.504h-28.63v-8.504h-28.063v8.504H205.37v-8.504h-28.062v8.504
		h-28.631v-8.504h-28.062v8.504H92.126v-28.488h8.504v-28.063h-8.504v-28.629h8.504v-28.062h-8.504v-28.63h8.504v-28.062h-8.504
		v-28.63h8.504v-28.062h-8.504v-28.63h8.504v-28.063h-8.504v-28.629h8.504V212.74h-8.504v-28.63h8.504v-28.063h-8.504v-28.63h8.504
		V99.354h-8.504V70.866L92.126,70.866z"/>
	<path id="top" fill="#FFFFFF" stroke="#FF0000" d="M917.716,70.866h28.488v8.504h28.063v-8.504h28.63v8.504h28.062v-8.504h28.63
		v8.504h28.063v-8.504h28.63v8.504h28.062v-8.504h28.63v8.504h28.063v-8.504h28.63v8.504h28.062v-8.504h28.631v8.504h28.062v-8.504
		h28.63v8.504h28.062v-8.504h28.63v8.504h28.063v-8.504h28.63v8.504h28.062v-8.504h28.63v8.504h28.063v-8.504h28.488v28.488h-8.504
		v28.063h8.504v28.63h-8.504v28.063h8.504v28.63h-8.504v28.063h8.504v28.63h-8.504v28.063h8.504v28.63h-8.504v28.062h8.504v28.631
		h-8.504v28.062h8.504v28.63h-8.504v28.062h8.504v28.629h-8.504v28.063h8.504v28.488h-28.488v-8.504h-28.063v8.504h-28.63v-8.504
		h-28.062v8.504h-28.63v-8.504h-28.063v8.504h-28.63v-8.504h-28.062v8.504h-28.63v-8.504h-28.062v8.504h-28.631v-8.504h-28.062
		v8.504h-28.63v-8.504h-28.063v8.504h-28.63v-8.504h-28.062v8.504h-28.63v-8.504h-28.063v8.504h-28.63v-8.504h-28.062v8.504h-28.63
		v-8.504h-28.063v8.504h-28.488v-28.488h8.504v-28.063h-8.504v-28.629h8.504v-28.062h-8.504v-28.63h8.504v-28.062h-8.504v-28.631
		h8.504v-28.062h-8.504v-28.63h8.504v-28.063h-8.504v-28.63h8.504V212.74h-8.504v-28.63h8.504v-28.063h-8.504v-28.63h8.504V99.354
		h-8.504V70.866z"/>
	<path id="font" fill="#FFFFFF" stroke="#FF0000" d="M917.716,649.134h28.205v-8.504h28.63v8.504h28.062v-8.504h28.631v8.504h28.062
		v-8.504h28.63v8.504h28.062v-8.504h28.63v8.504h28.063v-8.504h28.63v8.504h28.063v-8.504h28.629v8.504h28.063v-8.504h28.63v8.504
		h28.063v-8.504h28.63v8.504h28.062v-8.504h28.63v8.504h28.063v-8.504h28.63v8.504h28.063v-8.504h28.629v8.504h28.205v39.827h-8.504
		v39.401h8.504v39.827h-28.205v8.504h-28.629v-8.504h-28.063v8.504h-28.63v-8.504h-28.063v8.504h-28.63v-8.504h-28.062v8.504h-28.63
		v-8.504h-28.063v8.504h-28.63v-8.504h-28.063v8.504h-28.629v-8.504h-28.063v8.504h-28.63v-8.504h-28.063v8.504h-28.63v-8.504
		h-28.062v8.504h-28.63v-8.504h-28.062v8.504h-28.631v-8.504h-28.062v8.504h-28.63v-8.504h-28.205v-39.827h8.504v-39.401h-8.504
		V649.134z"/>
	<path id="back" fill="#FFFFFF" stroke="#FF0000" d="M92.126,649.134h28.205v-8.504h28.629v8.504h28.063v-8.504h28.629v8.504h28.063
		v-8.504h28.63v8.504h28.063v-8.504h28.63v8.504h28.062v-8.504h28.63v8.504h28.062v-8.504h28.63v8.504h28.063v-8.504h28.63v8.504
		h28.062v-8.504h28.63v8.504h28.063v-8.504h28.63v8.504h28.063v-8.504h28.629v8.504h28.063v-8.504h28.63v8.504h28.205v39.827h-8.504
		v39.401h8.504v39.827H715.89v8.504h-28.63v-8.504h-28.063v8.504h-28.629v-8.504h-28.063v8.504h-28.63v-8.504h-28.063v8.504h-28.63
		v-8.504h-28.062v8.504h-28.63v-8.504h-28.063v8.504h-28.63v-8.504h-28.062v8.504h-28.63v-8.504h-28.062v8.504h-28.63v-8.504
		h-28.063v8.504h-28.63v-8.504h-28.063v8.504h-28.629v-8.504H148.96v8.504h-28.629v-8.504H92.126v-39.827h8.504v-39.401h-8.504
		V649.134z"/>
	<path id="left_side" fill="#FFFFFF" stroke="#FF0000" d="M692.361,829.843h19.702v-8.504h28.63v8.504h28.062v-8.504h28.63v8.504
		h28.062v-8.504h28.63v8.504h28.062v-8.504h28.631v8.504h28.062v-8.504h28.631v8.504h28.062v-8.504h28.63v8.504h28.062v-8.504
		h28.631v8.504h28.062v-8.504h28.63v8.504h19.7v39.543h8.504v39.969h-8.504v39.543h-19.7v8.504h-28.63v-8.504h-28.062v8.504h-28.631
		v-8.504h-28.062v8.504h-28.63v-8.504h-28.062v8.504h-28.631v-8.504h-28.062v8.504h-28.631v-8.504h-28.062v8.504h-28.63v-8.504
		h-28.062v8.504h-28.63v-8.504h-28.062v8.504h-28.63v-8.504h-19.702v-39.543h-8.503v-39.969h8.503V829.843z"/>
	<path id="right_side" fill="#FFFFFF" stroke="#FF0000" d="M79.37,829.843h19.701v-8.504h28.63v8.504h28.063v-8.504h28.629v8.504
		h28.063v-8.504h28.63v8.504h28.063v-8.504h28.63v8.504h28.062v-8.504h28.63v8.504h28.062v-8.504h28.63v8.504h28.063v-8.504h28.63
		v8.504h28.062v-8.504h28.63v8.504h19.701v39.543h8.504v39.969h-8.504v39.543h-19.701v8.504h-28.63v-8.504h-28.062v8.504h-28.63
		v-8.504h-28.063v8.504h-28.63v-8.504h-28.062v8.504h-28.63v-8.504H297.78v8.504h-28.63v-8.504h-28.063v8.504h-28.63v-8.504h-28.063
		v8.504h-28.629v-8.504H127.7v8.504h-28.63v-8.504H79.37v-39.543h-8.504v-39.969h8.504V829.843L79.37,829.843z"/>
</g>
</svg>
